<?xml version="1.0" encoding="UTF-8"?>
<svg width="31px" height="36px" viewBox="0 0 31 36" version="1.1" xmlns="http://www.w3.org/2000/svg" xmlns:xlink="http://www.w3.org/1999/xlink">
    <title>编组</title>
    <g id="页面-1" stroke="none" stroke-width="1" fill="none" fill-rule="evenodd">
        <g id="1-供应链聚合页首页-默认效果" transform="translate(-160.000000, -8.000000)">
            <g id="编组-3" transform="translate(160.000000, 8.000000)">
                <g id="编组">
                    <polygon id="路径-24备份-3" fill="#FFFFFF" transform="translate(18.975000, 21.428571) scale(-1, -1) translate(-18.975000, -21.428571) " points="22.4332192 6.85714286 7.5 15.8850932 7.5 33.7826087 11.2726027 36 11.2726027 18.1024845 22.4332192 11.2919255 26.6773973 13.5093168 26.6773973 27.1304348 19.1321918 31.7236025 22.9047945 33.7826087 30.45 29.189441 30.45 11.6086957"></polygon>
                    <polygon id="路径-24备份-4" fill="#FFFFFF" points="15.6332192 0 0.7 9.02795031 0.7 26.9254658 4.47260274 29.1428571 4.47260274 11.2453416 15.6332192 4.43478261 19.8773973 6.65217391 19.8773973 20.2732919 12.6465753 24.5496894 16.1047945 26.9254658 23.65 22.3322981 23.65 4.7515528"></polygon>
                    <polygon id="路径-26备份" fill="#FF4040" points="13.45 21.4285714 13.45 17.0649351 17.7 14.5714286 17.7 18.9350649"></polygon>
                </g>
            </g>
        </g>
    </g>
</svg>